# xmcd
#
# Track frame offsets:
#	150
#	14847
#	28062
#	42995
#	54382
#	73017
#	86632
#	103537
#	116925
#	131857
#
# Disc length: 1941 seconds
#
# Revision: 0
# Processed by: cddbd v1.5.1PL0 Copyright (c) Steve Scherf et al.
# Submitted via: dBpowerAMP V4.0
#
DISCID=9207930a
DTITLE=Albert Babin - Poésies Country
DYEAR=1900
DGENRE=
TTITLE0=Esclave d'une hache pi n'buck saw
TTITLE1=Je n'suis pas différent *
TTITLE2=Le temps perdu
TTITLE3=J'me suis bien amuser hier soir *
TTITLE4=Dans mon shack
TTITLE5=La light du borgot *
TTITLE6=Entre deux gros mots *
TTITLE7=Fier d'être acad'jin *
TTITLE8=Les blues à Ti-Toine*
TTITLE9=Le Marie-Carole*
EXTD=L'acadienne
EXTT0=
EXTT1=
EXTT2=
EXTT3=
EXTT4=
EXTT5=
EXTT6=
EXTT7=
EXTT8=
EXTT9=
PLAYORDER=
